{
  "accessors": [
    {
      "name": "Surface-Mesh_0_positions",
      "componentType": 5126,
      "count": 256,
      "min": [
        -1,
        -1,
        -1
      ],
      "max": [
        1,
        1,
        1
      ],
      "type": "VEC3",
      "bufferView": 0,
      "byteOffset": 0
    },
    {
      "name": "Surface-Mesh_0_normals",
      "componentType": 5126,
      "count": 256,
      "min": [
        -1,
        0,
        -1
      ],
      "max": [
        1,
        0,
        1
      ],
      "type": "VEC3",
      "bufferView": 1,
      "byteOffset": 0
    },
    {
      "name": "Surface-Mesh_0_indices",
      "componentType": 5123,
      "count": 1344,
      "min": [
        0
      ],
      "max": [
        255
      ],
      "type": "SCALAR",
      "bufferView": 2,
      "byteOffset": 0
    },
    {
      "name": "line_20190119_E1_cav_kdo_5000-Mesh_0_positions",
      "componentType": 5126,
      "count": 14952,
      "min": [
        3.358665943145752,
        0.6805009841918945,
        -9.262990951538086
      ],
      "max": [
        8.39473819732666,
        4.2724289894104,
        -2.484297037124634
      ],
      "type": "VEC3",
      "bufferView": 0,
      "byteOffset": 3072
    },
    {
      "name": "line_20190119_E1_cav_kdo_5000-Mesh_0_normals",
      "componentType": 5126,
      "count": 14952,
      "min": [
        -0.999224841594696,
        -0.9999550580978394,
        -0.9992621541023254
      ],
      "max": [
        0.9996376633644104,
        0.9999474883079529,
        0.999697208404541
      ],
      "type": "VEC3",
      "bufferView": 1,
      "byteOffset": 3072
    },
    {
      "name": "line_20190119_E1_cav_kdo_5000-Mesh_0_indices",
      "componentType": 5123,
      "count": 14994,
      "min": [
        0
      ],
      "max": [
        14951
      ],
      "type": "SCALAR",
      "bufferView": 2,
      "byteOffset": 2688
    },
    {
      "name": "Cube.001-Mesh_0_positions",
      "componentType": 5126,
      "count": 24,
      "min": [
        -1,
        -1,
        -1
      ],
      "max": [
        1,
        1,
        1.0000009536743164
      ],
      "type": "VEC3",
      "bufferView": 0,
      "byteOffset": 182496
    },
    {
      "name": "Cube.001-Mesh_0_normals",
      "componentType": 5126,
      "count": 24,
      "min": [
        -1,
        -1,
        -1
      ],
      "max": [
        1,
        1,
        1
      ],
      "type": "VEC3",
      "bufferView": 1,
      "byteOffset": 182496
    },
    {
      "name": "Cube.001-Mesh_0_indices",
      "componentType": 5123,
      "count": 36,
      "min": [
        0
      ],
      "max": [
        23
      ],
      "type": "SCALAR",
      "bufferView": 2,
      "byteOffset": 32676
    },
    {
      "name": "Cube-Mesh_0_positions",
      "componentType": 5126,
      "count": 24,
      "min": [
        -1,
        -1,
        -1
      ],
      "max": [
        1,
        1,
        1.0000009536743164
      ],
      "type": "VEC3",
      "bufferView": 0,
      "byteOffset": 182784
    },
    {
      "name": "Cube-Mesh_0_normals",
      "componentType": 5126,
      "count": 24,
      "min": [
        -1,
        -1,
        -1
      ],
      "max": [
        1,
        1,
        1
      ],
      "type": "VEC3",
      "bufferView": 1,
      "byteOffset": 182784
    },
    {
      "name": "Cube-Mesh_0_indices",
      "componentType": 5123,
      "count": 36,
      "min": [
        0
      ],
      "max": [
        23
      ],
      "type": "SCALAR",
      "bufferView": 2,
      "byteOffset": 32748
    }
  ],
  "asset": {
    "generator": "obj2gltf",
    "version": "2.0"
  },
  "buffers": [
    {
      "name": "line_20190119_E1_cav_kdo_5000",
      "byteLength": 398964,
      "uri": "data:application/octet-stream;base64,"
    }
  ],
  "bufferViews": [
    {
      "name": "bufferView_0",
      "buffer": 0,
      "byteLength": 183072,
      "byteOffset": 0,
      "byteStride": 12,
      "target": 34962
    },
    {
      "name": "bufferView_1",
      "buffer": 0,
      "byteLength": 183072,
      "byteOffset": 183072,
      "byteStride": 12,
      "target": 34962
    },
    {
      "name": "bufferView_2",
      "buffer": 0,
      "byteLength": 32820,
      "byteOffset": 366144,
      "target": 34963
    }
  ],
  "materials": [
    {
      "name": "None",
      "pbrMetallicRoughness": {
        "baseColorFactor": [
          0.8,
          0.8,
          0.8,
          1
        ],
        "metallicFactor": 0,
        "roughnessFactor": 1
      },
      "emissiveFactor": [
        0,
        0,
        0
      ],
      "alphaMode": "OPAQUE",
      "doubleSided": false
    },
    {
      "name": "Material.001",
      "pbrMetallicRoughness": {
        "baseColorFactor": [
          0.64,
          0.64,
          0.64,
          1
        ],
        "metallicFactor": 0,
        "roughnessFactor": 0.905882353
      },
      "emissiveFactor": [
        0,
        0,
        0
      ],
      "alphaMode": "OPAQUE",
      "doubleSided": false
    },
    {
      "name": "Material",
      "pbrMetallicRoughness": {
        "baseColorFactor": [
          0.64,
          0.64,
          0.64,
          1
        ],
        "metallicFactor": 0,
        "roughnessFactor": 0.903921569
      },
      "emissiveFactor": [
        0,
        0,
        0
      ],
      "alphaMode": "OPAQUE",
      "doubleSided": false
    }
  ],
  "meshes": [
    {
      "name": "Surface-Mesh",
      "primitives": [
        {
          "attributes": {
            "POSITION": 0,
            "NORMAL": 1
          },
          "indices": 2,
          "material": 0,
          "mode": 4
        }
      ]
    },
    {
      "name": "line_20190119_E1_cav_kdo_5000-Mesh",
      "primitives": [
        {
          "attributes": {
            "POSITION": 3,
            "NORMAL": 4
          },
          "indices": 5,
          "material": 0,
          "mode": 4
        }
      ]
    },
    {
      "name": "Cube.001-Mesh",
      "primitives": [
        {
          "attributes": {
            "POSITION": 6,
            "NORMAL": 7
          },
          "indices": 8,
          "material": 1,
          "mode": 4
        }
      ]
    },
    {
      "name": "Cube-Mesh",
      "primitives": [
        {
          "attributes": {
            "POSITION": 9,
            "NORMAL": 10
          },
          "indices": 11,
          "material": 2,
          "mode": 4
        }
      ]
    }
  ],
  "nodes": [
    {
      "name": "Surface",
      "mesh": 0
    },
    {
      "name": "line_20190119_E1_cav_kdo_5000",
      "mesh": 1
    },
    {
      "name": "Cube.001",
      "mesh": 2
    },
    {
      "name": "Cube",
      "mesh": 3
    }
  ],
  "scene": 0,
  "scenes": [
    {
      "nodes": [
        0,
        1,
        2,
        3
      ]
    }
  ]
}
