{
  "accessors": [
    {
      "name": "line_20190402_E2_spl_5000-Mesh_0_positions",
      "componentType": 5126,
      "count": 14991,
      "min": [
        -0.7098569869995117,
        -0.37088799476623535,
        -0.34608399868011475
      ],
      "max": [
        0.6767609715461731,
        0.3177669942378998,
        0.598717987537384
      ],
      "type": "VEC3",
      "bufferView": 0,
      "byteOffset": 0
    },
    {
      "name": "line_20190402_E2_spl_5000-Mesh_0_normals",
      "componentType": 5126,
      "count": 14991,
      "min": [
        -0.9995282888412476,
        -0.9998889565467834,
        -0.999018132686615
      ],
      "max": [
        0.9997643828392029,
        0.9997408986091614,
        0.9991769194602966
      ],
      "type": "VEC3",
      "bufferView": 1,
      "byteOffset": 0
    },
    {
      "name": "line_20190402_E2_spl_5000-Mesh_0_indices",
      "componentType": 5123,
      "count": 14997,
      "min": [
        0
      ],
      "max": [
        14990
      ],
      "type": "SCALAR",
      "bufferView": 2,
      "byteOffset": 0
    },
    {
      "name": "line_20190402_E2_som_5000-Mesh_0_positions",
      "componentType": 5126,
      "count": 15000,
      "min": [
        -0.7062489986419678,
        -0.32905900478363037,
        -0.4292890131473541
      ],
      "max": [
        0.6701070070266724,
        0.32794100046157837,
        0.5941770076751709
      ],
      "type": "VEC3",
      "bufferView": 0,
      "byteOffset": 179892
    },
    {
      "name": "line_20190402_E2_som_5000-Mesh_0_normals",
      "componentType": 5126,
      "count": 15000,
      "min": [
        -0.9988382458686829,
        -0.9997063875198364,
        -0.9987158179283142
      ],
      "max": [
        0.9983406662940979,
        0.9999463558197021,
        0.9998282194137573
      ],
      "type": "VEC3",
      "bufferView": 1,
      "byteOffset": 179892
    },
    {
      "name": "line_20190402_E2_som_5000-Mesh_0_indices",
      "componentType": 5123,
      "count": 15000,
      "min": [
        0
      ],
      "max": [
        14999
      ],
      "type": "SCALAR",
      "bufferView": 2,
      "byteOffset": 29996
    },
    {
      "name": "line_20190402_E2_pro_5000-Mesh_0_positions",
      "componentType": 5126,
      "count": 14998,
      "min": [
        -0.5036659836769104,
        -0.10014999657869339,
        -0.38854798674583435
      ],
      "max": [
        0.41355499625205994,
        0.2805440127849579,
        0.45890000462532043
      ],
      "type": "VEC3",
      "bufferView": 0,
      "byteOffset": 359892
    },
    {
      "name": "line_20190402_E2_pro_5000-Mesh_0_normals",
      "componentType": 5126,
      "count": 14998,
      "min": [
        -0.9993541836738586,
        -0.9997684359550476,
        -0.9926998019218445
      ],
      "max": [
        0.9999684691429138,
        0.9999181032180786,
        0.9997685551643372
      ],
      "type": "VEC3",
      "bufferView": 1,
      "byteOffset": 359892
    },
    {
      "name": "line_20190402_E2_pro_5000-Mesh_0_indices",
      "componentType": 5123,
      "count": 15000,
      "min": [
        0
      ],
      "max": [
        14997
      ],
      "type": "SCALAR",
      "bufferView": 2,
      "byteOffset": 59996
    },
    {
      "name": "line_20190402_E2_myo_5000-Mesh_0_positions",
      "componentType": 5126,
      "count": 15000,
      "min": [
        -0.6815969944000244,
        -0.3097350001335144,
        -0.3844060003757477
      ],
      "max": [
        0.6150410175323486,
        0.2669120132923126,
        0.4186829924583435
      ],
      "type": "VEC3",
      "bufferView": 0,
      "byteOffset": 539868
    },
    {
      "name": "line_20190402_E2_myo_5000-Mesh_0_normals",
      "componentType": 5126,
      "count": 15000,
      "min": [
        -0.9998701810836792,
        -0.9996206760406494,
        -0.9997416734695435
      ],
      "max": [
        0.9999406337738037,
        0.9994910955429077,
        0.9999930262565613
      ],
      "type": "VEC3",
      "bufferView": 1,
      "byteOffset": 539868
    },
    {
      "name": "line_20190402_E2_myo_5000-Mesh_0_indices",
      "componentType": 5123,
      "count": 15000,
      "min": [
        0
      ],
      "max": [
        14999
      ],
      "type": "SCALAR",
      "bufferView": 2,
      "byteOffset": 89996
    }
  ],
  "asset": {
    "generator": "obj2gltf",
    "version": "2.0"
  },
  "buffers": [
    {
      "name": "objs",
      "byteLength": 1559732,
      "uri": "data:application/octet-stream;base64,"
    }
  ],
  "bufferViews": [
    {
      "name": "bufferView_0",
      "buffer": 0,
      "byteLength": 719868,
      "byteOffset": 0,
      "byteStride": 12,
      "target": 34962
    },
    {
      "name": "bufferView_1",
      "buffer": 0,
      "byteLength": 719868,
      "byteOffset": 719868,
      "byteStride": 12,
      "target": 34962
    },
    {
      "name": "bufferView_2",
      "buffer": 0,
      "byteLength": 119996,
      "byteOffset": 1439736,
      "target": 34963
    }
  ],
  "materials": [
    {
      "name": "Material.004",
      "pbrMetallicRoughness": {
        "baseColorFactor": [
          0.000703,
          0.586059,
          0.64,
          1
        ],
        "metallicFactor": 0,
        "roughnessFactor": 0.903921569
      },
      "emissiveFactor": [
        0,
        0,
        0
      ],
      "alphaMode": "OPAQUE",
      "doubleSided": false
    },
    {
      "name": "Material.003",
      "pbrMetallicRoughness": {
        "baseColorFactor": [
          0.64,
          0.454595,
          0,
          1
        ],
        "metallicFactor": 0,
        "roughnessFactor": 0.903921569
      },
      "emissiveFactor": [
        0,
        0,
        0
      ],
      "alphaMode": "OPAQUE",
      "doubleSided": false
    },
    {
      "name": "Material.002",
      "pbrMetallicRoughness": {
        "baseColorFactor": [
          0.64,
          0.007227,
          0.316921,
          1
        ],
        "metallicFactor": 0,
        "roughnessFactor": 0.903921569
      },
      "emissiveFactor": [
        0,
        0,
        0
      ],
      "alphaMode": "OPAQUE",
      "doubleSided": false
    },
    {
      "name": "Material.001",
      "pbrMetallicRoughness": {
        "baseColorFactor": [
          0.64,
          0,
          0,
          1
        ],
        "metallicFactor": 0,
        "roughnessFactor": 0.903921569
      },
      "emissiveFactor": [
        0,
        0,
        0
      ],
      "alphaMode": "OPAQUE",
      "doubleSided": false
    }
  ],
  "meshes": [
    {
      "name": "line_20190402_E2_spl_5000-Mesh",
      "primitives": [
        {
          "attributes": {
            "POSITION": 0,
            "NORMAL": 1
          },
          "indices": 2,
          "material": 0,
          "mode": 4
        }
      ]
    },
    {
      "name": "line_20190402_E2_som_5000-Mesh",
      "primitives": [
        {
          "attributes": {
            "POSITION": 3,
            "NORMAL": 4
          },
          "indices": 5,
          "material": 1,
          "mode": 4
        }
      ]
    },
    {
      "name": "line_20190402_E2_pro_5000-Mesh",
      "primitives": [
        {
          "attributes": {
            "POSITION": 6,
            "NORMAL": 7
          },
          "indices": 8,
          "material": 2,
          "mode": 4
        }
      ]
    },
    {
      "name": "line_20190402_E2_myo_5000-Mesh",
      "primitives": [
        {
          "attributes": {
            "POSITION": 9,
            "NORMAL": 10
          },
          "indices": 11,
          "material": 3,
          "mode": 4
        }
      ]
    }
  ],
  "nodes": [
    {
      "name": "line_20190402_E2_spl_5000",
      "mesh": 0
    },
    {
      "name": "line_20190402_E2_som_5000",
      "mesh": 1
    },
    {
      "name": "line_20190402_E2_pro_5000",
      "mesh": 2
    },
    {
      "name": "line_20190402_E2_myo_5000",
      "mesh": 3
    }
  ],
  "scene": 0,
  "scenes": [
    {
      "nodes": [
        0,
        1,
        2,
        3
      ]
    }
  ]
}
