{
  "accessors": [
    {
      "name": "line_20190402_E2_spl_5000_line_20190402_E2_spl_5000.002-Mesh_0_positions",
      "componentType": 5126,
      "count": 14991,
      "min": [
        -342.13787841796875,
        -185.4437713623047,
        -325.5426025390625
      ],
      "max": [
        335.1820983886719,
        158.883544921875,
        165.42483520507812
      ],
      "type": "VEC3",
      "bufferView": 0,
      "byteOffset": 0
    },
    {
      "name": "line_20190402_E2_spl_5000_line_20190402_E2_spl_5000.002-Mesh_0_normals",
      "componentType": 5126,
      "count": 14991,
      "min": [
        -0.9991840720176697,
        -0.9998888969421387,
        -0.9992701411247253
      ],
      "max": [
        0.9999663233757019,
        0.9997424483299255,
        0.9998354315757751
      ],
      "type": "VEC3",
      "bufferView": 1,
      "byteOffset": 0
    },
    {
      "name": "line_20190402_E2_spl_5000_line_20190402_E2_spl_5000.002-Mesh_0_indices",
      "componentType": 5123,
      "count": 14997,
      "min": [
        0
      ],
      "max": [
        14990
      ],
      "type": "SCALAR",
      "bufferView": 2,
      "byteOffset": 0
    },
    {
      "name": "line_20190402_E2_som_5000_line_20190402_E2_som_5000.002-Mesh_0_positions",
      "componentType": 5126,
      "count": 15000,
      "min": [
        -338.5105895996094,
        -164.52943420410156,
        -323.57989501953125
      ],
      "max": [
        336.7387390136719,
        163.97039794921875,
        214.7357177734375
      ],
      "type": "VEC3",
      "bufferView": 0,
      "byteOffset": 179892
    },
    {
      "name": "line_20190402_E2_som_5000_line_20190402_E2_som_5000.002-Mesh_0_normals",
      "componentType": 5126,
      "count": 15000,
      "min": [
        -0.9998103976249695,
        -0.9997042417526245,
        -0.9998431205749512
      ],
      "max": [
        0.9999192953109741,
        0.9999464750289917,
        0.9994633793830872
      ],
      "type": "VEC3",
      "bufferView": 1,
      "byteOffset": 179892
    },
    {
      "name": "line_20190402_E2_som_5000_line_20190402_E2_som_5000.002-Mesh_0_indices",
      "componentType": 5123,
      "count": 15000,
      "min": [
        0
      ],
      "max": [
        14999
      ],
      "type": "SCALAR",
      "bufferView": 2,
      "byteOffset": 29996
    },
    {
      "name": "line_20190402_E2_pro_5000_line_20190402_E2_pro_5000.002-Mesh_0_positions",
      "componentType": 5126,
      "count": 14998,
      "min": [
        -216.0896453857422,
        -50.07516860961914,
        -245.3626251220703
      ],
      "max": [
        258.8733825683594,
        140.27175903320312,
        197.26124572753906
      ],
      "type": "VEC3",
      "bufferView": 0,
      "byteOffset": 359892
    },
    {
      "name": "line_20190402_E2_pro_5000_line_20190402_E2_pro_5000.002-Mesh_0_normals",
      "componentType": 5126,
      "count": 14998,
      "min": [
        -0.999914288520813,
        -0.9997689127922058,
        -0.9999123811721802
      ],
      "max": [
        0.9999409317970276,
        0.9999179244041443,
        0.9997896552085876
      ],
      "type": "VEC3",
      "bufferView": 1,
      "byteOffset": 359892
    },
    {
      "name": "line_20190402_E2_pro_5000_line_20190402_E2_pro_5000.002-Mesh_0_indices",
      "componentType": 5123,
      "count": 15000,
      "min": [
        0
      ],
      "max": [
        14997
      ],
      "type": "SCALAR",
      "bufferView": 2,
      "byteOffset": 59996
    },
    {
      "name": "line_20190402_E2_myo_5000_line_20190402_E2_myo_5000.002-Mesh_0_positions",
      "componentType": 5126,
      "count": 14998,
      "min": [
        -319.3995666503906,
        -154.86758422851562,
        -249.72669982910156
      ],
      "max": [
        321.1637878417969,
        133.45602416992188,
        192.8825225830078
      ],
      "type": "VEC3",
      "bufferView": 0,
      "byteOffset": 539868
    },
    {
      "name": "line_20190402_E2_myo_5000_line_20190402_E2_myo_5000.002-Mesh_0_normals",
      "componentType": 5126,
      "count": 14998,
      "min": [
        -0.9993797540664673,
        -0.9996199607849121,
        -0.9999617338180542
      ],
      "max": [
        0.9991236329078674,
        0.9994921684265137,
        0.9990614652633667
      ],
      "type": "VEC3",
      "bufferView": 1,
      "byteOffset": 539868
    },
    {
      "name": "line_20190402_E2_myo_5000_line_20190402_E2_myo_5000.002-Mesh_0_indices",
      "componentType": 5123,
      "count": 15000,
      "min": [
        0
      ],
      "max": [
        14997
      ],
      "type": "SCALAR",
      "bufferView": 2,
      "byteOffset": 89996
    }
  ],
  "asset": {
    "generator": "obj2gltf",
    "version": "2.0"
  },
  "buffers": [
    {
      "name": "objs",
      "byteLength": 1559684,
      "uri": "data:application/octet-stream;base64,"
    }
  ],
  "bufferViews": [
    {
      "name": "bufferView_0",
      "buffer": 0,
      "byteLength": 719844,
      "byteOffset": 0,
      "byteStride": 12,
      "target": 34962
    },
    {
      "name": "bufferView_1",
      "buffer": 0,
      "byteLength": 719844,
      "byteOffset": 719844,
      "byteStride": 12,
      "target": 34962
    },
    {
      "name": "bufferView_2",
      "buffer": 0,
      "byteLength": 119996,
      "byteOffset": 1439688,
      "target": 34963
    }
  ],
  "materials": [
    {
      "name": "Material.001",
      "pbrMetallicRoughness": {
        "baseColorFactor": [
          0,
          0.263751,
          0.64,
          1
        ],
        "metallicFactor": 0,
        "roughnessFactor": 0.903921569
      },
      "emissiveFactor": [
        0,
        0,
        0
      ],
      "alphaMode": "OPAQUE",
      "doubleSided": false
    },
    {
      "name": "Material.002",
      "pbrMetallicRoughness": {
        "baseColorFactor": [
          0.64,
          0.563368,
          0,
          1
        ],
        "metallicFactor": 0,
        "roughnessFactor": 0.903921569
      },
      "emissiveFactor": [
        0,
        0,
        0
      ],
      "alphaMode": "OPAQUE",
      "doubleSided": false
    },
    {
      "name": "Material.003",
      "pbrMetallicRoughness": {
        "baseColorFactor": [
          0.64,
          0.080589,
          0,
          1
        ],
        "metallicFactor": 0,
        "roughnessFactor": 0.903921569
      },
      "emissiveFactor": [
        0,
        0,
        0
      ],
      "alphaMode": "OPAQUE",
      "doubleSided": false
    },
    {
      "name": "Material.004",
      "pbrMetallicRoughness": {
        "baseColorFactor": [
          0.64,
          0,
          0.001291,
          1
        ],
        "metallicFactor": 0,
        "roughnessFactor": 0.903921569
      },
      "emissiveFactor": [
        0,
        0,
        0
      ],
      "alphaMode": "OPAQUE",
      "doubleSided": false
    }
  ],
  "meshes": [
    {
      "name": "line_20190402_E2_spl_5000_line_20190402_E2_spl_5000.002-Mesh",
      "primitives": [
        {
          "attributes": {
            "POSITION": 0,
            "NORMAL": 1
          },
          "indices": 2,
          "material": 0,
          "mode": 4
        }
      ]
    },
    {
      "name": "line_20190402_E2_som_5000_line_20190402_E2_som_5000.002-Mesh",
      "primitives": [
        {
          "attributes": {
            "POSITION": 3,
            "NORMAL": 4
          },
          "indices": 5,
          "material": 1,
          "mode": 4
        }
      ]
    },
    {
      "name": "line_20190402_E2_pro_5000_line_20190402_E2_pro_5000.002-Mesh",
      "primitives": [
        {
          "attributes": {
            "POSITION": 6,
            "NORMAL": 7
          },
          "indices": 8,
          "material": 2,
          "mode": 4
        }
      ]
    },
    {
      "name": "line_20190402_E2_myo_5000_line_20190402_E2_myo_5000.002-Mesh",
      "primitives": [
        {
          "attributes": {
            "POSITION": 9,
            "NORMAL": 10
          },
          "indices": 11,
          "material": 3,
          "mode": 4
        }
      ]
    }
  ],
  "nodes": [
    {
      "name": "line_20190402_E2_spl_5000_line_20190402_E2_spl_5000.002",
      "mesh": 0
    },
    {
      "name": "line_20190402_E2_som_5000_line_20190402_E2_som_5000.002",
      "mesh": 1
    },
    {
      "name": "line_20190402_E2_pro_5000_line_20190402_E2_pro_5000.002",
      "mesh": 2
    },
    {
      "name": "line_20190402_E2_myo_5000_line_20190402_E2_myo_5000.002",
      "mesh": 3
    }
  ],
  "scene": 0,
  "scenes": [
    {
      "nodes": [
        0,
        1,
        2,
        3
      ]
    }
  ]
}
